<svg xmlns="http://www.w3.org/2000/svg" width="520.417" height="115.68" viewBox="0 0 12388 2754" shape-rendering="geometricPrecision" text-rendering="geometricPrecision" image-rendering="optimizeQuality" fill-rule="evenodd" clip-rule="evenodd"><defs><clipPath id="id0" clip-rule="nonzero"><path d="M3532 1251h55c109 0 194-26 256-79 61-53 92-126 92-219s-31-167-92-220c-62-54-147-80-256-80h-55v598zm-247 225V430h278c195 0 348 46 459 140 110 93 166 221 166 383 0 97-22 183-66 259-43 75-108 137-192 186-49 27-101 47-158 60-56 12-126 18-209 18h-278zm1102 0V430h249v1046h-249zm515 0V396h24l651 610V430h231v1086h-22l-654-611v571h-230zm1394-189h104c49 0 89-12 117-37 29-24 43-58 43-101 0-42-14-74-42-97-27-23-67-34-118-34h-104v269zm0-443h83c49 0 87-11 115-33 27-21 41-51 41-90 0-40-13-68-39-86-26-19-67-28-123-28h-77v237zm-228 632V430h324c122 0 213 22 276 66 62 45 93 111 93 199 0 53-14 99-42 136-29 37-72 66-129 87 64 14 113 44 150 89 36 45 54 100 54 165 0 100-37 176-112 227-74 51-184 77-330 77h-284zm1155-332h275l-136-328-139 328zm-392 332l534-1079h16l522 1079h-262l-66-152h-425l-67 152h-252zm1171 0V396h24l652 610V430h230v1086h-21l-654-611v571h-231zm1414-225h55c109 0 194-26 256-79 61-53 92-126 92-219s-31-167-92-220c-62-54-147-80-256-80h-55v598zm-247 225V430h278c195 0 348 46 459 140 111 93 166 221 166 383 0 97-22 183-66 259-43 75-108 137-192 186-49 27-101 47-158 60-56 12-126 18-209 18h-278zm1099 0V430h247v384h403V430h245v1046h-245v-439h-403v439h-247zm1394-1046v575c0 92 17 161 51 207s85 69 154 69c67 0 117-21 152-64s52-105 52-187V430h224v600c0 151-39 269-117 353-77 85-185 127-322 127-139 0-248-42-325-126-77-83-116-201-116-353V430h247z"/></clipPath><clipPath id="id1" clip-rule="nonzero"><path d="M3296 2332v-693h163v254h267v-254h162v693h-162v-291h-267v291h-163zm752 0v-693h426v143h-266v125h228v142h-228v137h270v146h-430zm556 0v-693h165v544h270v149h-435zm704-566h-22v185h30c41 0 73-8 95-24s33-39 33-70-11-54-32-69c-22-14-57-22-104-22zm-188 566v-693h178c55 0 99 4 131 12s61 21 85 40c26 19 46 42 60 70 15 29 22 59 22 90 0 70-25 125-75 167-50 41-118 61-203 61h-20c-4 0-9 0-12-1v254h-166zm861 0v-693h430v141h-266v138h238v140h-238v274h-164zm666-347c0 60 17 111 53 152 35 40 78 61 130 61 51 0 95-21 130-61 35-41 53-91 53-152s-18-111-53-152-79-61-130-61c-52 0-95 20-130 61-36 41-53 91-53 152zm-170 0c0-51 8-99 26-144 18-44 44-84 78-120 33-34 70-59 114-77 42-18 88-27 135-27s92 9 135 27 82 44 115 78c34 34 59 74 77 118 17 45 26 93 26 145 0 44-6 84-18 123-13 38-31 73-54 104-34 45-76 80-125 105s-101 37-156 37c-47 0-92-9-135-27s-81-45-114-79c-34-35-60-75-78-119-18-45-26-93-26-144zm977-346v381c0 61 12 106 34 137 23 30 57 45 102 45 44 0 78-14 101-42s34-70 34-124v-397h148v397c0 100-25 178-77 234-51 56-122 84-213 84-92 0-164-28-215-83-51-56-77-133-77-234v-398h163zm571 693v-715h16l431 404v-382h152v719h-14l-433-404v378h-152zm921-149h36c73 0 129-18 170-53s61-83 61-145c0-61-20-110-61-145-41-36-97-53-170-53h-36v396zm-163 149v-693h184c129 0 230 31 303 93 74 61 110 146 110 253 0 65-14 122-43 171-29 50-72 91-128 124-32 18-66 31-104 39-37 8-83 13-138 13h-184zm863-221h182l-90-216-92 216zm-259 221l353-714h11l345 714h-173l-44-101h-281l-44 101h-167zm831 0v-548h-220v-145h604v145h-219v548h-165zm465 0v-693h166v693h-166zm454-347c0 60 18 111 53 152 35 40 79 61 130 61 52 0 96-21 131-61 35-41 52-91 52-152s-17-111-52-152-79-61-131-61c-51 0-95 20-130 61s-53 91-53 152zm-170 0c0-51 9-99 27-144 17-44 43-84 78-120 32-34 70-59 113-77s88-27 135-27 92 9 136 27c43 18 81 44 115 78 33 34 59 74 76 118 18 45 26 93 26 145 0 44-6 84-18 123-12 38-30 73-54 104-34 45-75 80-124 105-50 25-102 37-157 37-47 0-91-9-134-27s-81-45-114-79c-35-35-61-75-78-119-18-45-27-93-27-144zm822 347v-715h15l432 404v-382h152v719h-14l-433-404v378h-152z"/></clipPath><style>.fil57{fill:none;fill-rule:nonzero}.fil1{fill:#025905}.fil14{fill:#042703}.fil6{fill:#045504}.fil10{fill:#045c05}.fil21{fill:#0b540b}.fil15{fill:#0b5b0b}.fil19{fill:#135313}.fil47{fill:#718e6f}.fil37{fill:#979998}.fil24{fill:#a0d09f}.fil29{fill:#a39d9f}.fil27{fill:#a7a8a7}.fil28{fill:#afb1ae}.fil48{fill:#b4edb4}.fil33{fill:#b7b8b7}.fil39{fill:#ce6f4d}.fil40{fill:#d09071}.fil34{fill:#d0f0ce}.fil44{fill:#d2ad8f}.fil35{fill:#d75727}.fil30{fill:#d9fad9}.fil25{fill:#e75517}.fil26{fill:#e75626}.fil17{fill:#e8fae6}.fil13{fill:#ebfdeb}.fil9{fill:#f4450b}.fil2{fill:#f44b0a}.fil7{fill:#f4f4f4}.fil8{fill:#f4fcf4}.fil54{fill:#373435;fill-rule:nonzero}.fil55,.fil56{fill:#025905;fill-opacity:.788235}.fil56{fill:#f44b0a}</style></defs><g id="Layer_x0020_1"><g id="_666409200"><path d="M1336 2058c78-48 109 94 50 126-68 37-117-85-50-126zm292 53c27 6 12-3 25 26 5 11 5 10 12 22-16-8-33-23-43-45-13-4-52-31-71-42-159-85-156-55-160-173 92 17 195 153 237 212zm-516 2c-9 17-1 7-17 21-11 9-9 7-21 14 11-25 6-27 31-37 11-31 147-196 230-204-16 110 3 87-83 130-34 17-117 70-140 76zm683-289c74-43 152 75 87 114-45 28-118-15-114-76 2-28 11-29 27-38zm-909-9c94-43 109 89 35 120-90 38-124-79-35-120zm133 20c26-22 43-50 64-64 1 2 2 4 2 5 37 80 1 267-27 322-4-48-9-90-17-137-7-40-23-90-22-126zm653 269c-27-69-55-285-12-347 127 112 17 106 12 347zm28-387c111-55 213-32 346-23-122 17-243 90-278 73-12-6-60-41-68-50zm-685 33c-66 38-45 27-121-4l-175-61c154-13 210-11 334 36l-38 29zm-263-133c-14 13-26 27-62 42 9-12 13-13 22-28 11-19 3-14 19-26 114-171 40-168 180-182-16 92-128 151-159 194zm1275 7c1 1 4 2 5 3s3 2 5 3c16 13 17 16 24 31-36-15-27-7-39-32-26-11-88-70-109-90-43-40-54-55-80-120l87 13c6 8 106 191 107 192zM682 1339c102-35 154 91 54 119-96 27-158-85-54-119zm1306 7c88-35 141 73 60 99-79 25-140-68-60-99zm-383 143c-15 25-6 47-33 69-13 10-15 3-30 21-19 21-65 44-92 54-29 10-24 19-69 28-8 13-26 28-51 27-18-1-8-4-26-5-18-2-8 5-30 1-27-6-20-30-44-33-33-4-38 11-43-26l-11-4-8-35c-24 16-51-10-61-39-23-66-80-27-109-74l14-246c5-13-3-5 7-11 20 7 109 44 123 45 23 1 105-77 265-75 33 1 48-9 70 9 60 53-41 54 288 4l-9 245c-124 9-87-6-151 45zm223-119c21-83 156-199 201-219-9 24-17 30-31 52l-57 103c-26 53-18 59-113 64zm-911 3c-109-5-85-14-126-89l-77-132c58 37 187 138 203 221zm-220-269c58-5 142-39 191-58 24-9 65-36 87-28 18 7 64 38 76 51-65 27-72 36-158 39-65 3-131 0-196-4zm952-60c13-15 52-38 77-42 24-5 55 21 77 32 27 13 50 24 78 36 15 7 24 12 39 18 8 3 16 5 23 9l18 11c-116 0-233-7-312-64zm-625-81c-1-21 34-190 40-270 33 57 60 266 25 332-28-14-20-27-65-62zm594 33c-13-81-11-95 7-171 10-44 27-113 44-148l22 252c-14 18-54 57-73 67zM887 852c78-28 145 100 66 126-79 25-149-97-66-126zm916-5c85-30 97 92 15 120-83 29-115-85-15-120zm-456-238c72-21 99 114 30 140-80 30-106-118-30-140zm255 86c-23 42-135 169-214 182l17-95c6-6 166-94 183-101 19-21 23-20 49-32-11 20-16 31-35 46zm-495-25c185 134 219 54 225 216-90-27-185-135-237-213l-21-21c-11-18-7-7-10-25 11 13 8 7 22 19l21 24zm-662 780c21 356 263 658 595 784 119 45 260 70 398 60 236-18 483-131 627-294 133-150 263-381 240-671-20-264-134-447-306-612-30-30-92-72-136-98-636-379-1463 85-1418 831z" fill="#fdf9f9"/><path class="fil1" d="M1260 2522h-31c0-26 0-52 2-77 3-38 2-25 33-28l-4 105zm130-76c14-7-17-5 16-6 23-1 14 3 18 6-15 12-1 6-25 6-71 9-71 70-42 75 15 2 31-8 17-30-2-2-16-16-19-20 11-3 18-6 26-10 69 54-24 86-56 67-49-30 8-95 65-88zm154 132c22-10 28-9 30-27-26-7-26-3-49 4 11-22 11-19 34-28l-5-18-11-95 29-12 13 107-21 2 8 9c24 21 48 45-32 65-50 12-82-1-106-27l14-10 7-9c-15-18-30-24-33-55 19-25 51-42 91-47-13 17-13 11-32 20-37 20-26 41-3 63l-10 21c17 31 31 39 76 37zm327-98c19-24 20-8 31-44-27 4-36 15-51 25 5-23 17-31 31-47 62-8 44 31-5 67-25 14-58 25-87 19-18-5-20-11-24-16l12-5c3 0 10 2 12 2-10-8-2 0-9-10l-91-23c17-39 17-21 59-27 18 11 40 10 64 12l-18 30c30 23 35 16 76 17zm-668-8c-7 56-101 48-106-8-4-51 89-78 113-25l-19 15c-3-3-36-61-56-13-7 18-6 31 4 43 22 25 51-4 64-12zm-156 7l-32-3 16-106c25 9-2 5 30 3l-14 106zm252-67l204-7c-26 13-66 13-97 15l-83 1c-34-4-15-2-24-9zm-98-7l-107-21c14-10-21-12 23-6l68 16c12 5 10 6 16 11zm605-23c2-24 5-26 25-34-6 23-8 23-25 34zm-57 39c10-17 46-50-25-56 21-36 40-33 69-16 5 41-11 62-44 72zm-77-48c12-15-15-3 21-17 4-1 18-3 23-4-11 16-19 16-44 21zm210 41l-33-102 28-20 5 122zm-937-99c16 2 0-9 17 10 45 0 14-3 26 11 24 14 2-2 14 15 4 15 3 2 3 15-2 31 1 12-11 29-39 0-3 2-19-12-17 6-6 6-17 26-10 18-14 18-27 25-43 4-78-26-59-64l12-23c1-1 3-3 4-5l-2-34c12-7 12-10 32-8 26 2 26 14 27 15zm831 15c12-13 21-15 41-16-15 14-15 19-41 16zm-1040 8c-13-5-4-1-15-7-1-1-3-1-4-3-1-3-2-3-4-4 3-20 9-37 15-55 8-24 8-36 26-46 5 17 13 17 17 20-8 28-16 76-35 95zm-28-103c1 3 3 13 3 14-2 36 5-1-6 11-56 61-139-58-85-86 48-10 87 16 95 56-7 8 8 12-7 5zm8-43c-12-3-11-1-19-8-12-9-2 1-7-11 10 2 10 1 18 7 11 8 2 2 8 12zm-26-19c-10-4-18-8-25-14-20-15-8-3-12-16 8 3 16 6 23 12 17 13 8 3 14 18zm64 50c-12-23-10-14-31-26l-7-5c2-18-36-58-46-91 28 12 30-4 48 43 43 4 63 23 85 41 0 0-1 13-16 8-16-5-4-33-56-36 8 30 24 46 37 63l-14 3zm-275-157c-1 14 22 53 28 78-41-10-71-99-80-138 27 12 17 1 33 29 9 17 12 17 19 31zm1695 64c1 36-22 98-39 119-22 28-57 39-101 51l-13 7c-42 17-17-6-35 10l-1 17 6 18-28 13c-13-16-12-25-18-45-6-19-11-33-16-52l6-4c0-1 1 2 2 3 8-10 8 14 6-14l-39 13c8-10 7-8 14-15-42-28 16-73 38-86 35-20 85-21 110-42 0 1 9 0-6 17 18 2 16 1 30-3 3-23-7-6 12-24 1-1 15-9 19-13 16-12 18-17 37-28l73-76-49 62 43 89c-7 14-2 5-8 12l-6 7c-4 6-6 7-10 12l-27-48zm-1638-83c6-5 5 7 9-7 1-3 5-1 7-3l76 76c23 19 18 2 25 30-12-5-17-7-27-14-22-15 2-8-26-12l-32 83-32-22c34-80 20-40 1-78 43 7 22 11 40-10-8-18-17-18-30-35-1 2-4 9-4 10-5 11-2 5-8 12-2 9 3 7-4 12-13 5-31-5-42-14-7-5-7-6-10-9l29 1c1-28-9-47-16-67 29 9 42 10 44 47zm-68-90c12 4 6-1 16 9 6 7 5 10 9 17-19-7-17-7-25-26zm1763 39c6-13 10-17 18-27 1-2 7-11 8-11 9-10 1-3 12-8-5 13-8 18-16 29-4 5-5 6-9 10-10 9-1 1-13 7zm-1763-39c-14-7-5 19-12-16l12 16zm1914-5c0-29-1-33 20-37 4 7 10 8 2 24-10 16-4 8-22 13zm-27-36c4-27 0-27 22-36 0 0 13 3 2 22-6 10-10 9-24 14zm-26 8l36 58-17 29c-1-1-2 3-3 4-1-1-3-2-3-3-1-1-3-2-4-3l-15-23c-9-13-13-19-24-32-14 27-28 36-38 76 23-15 14-9 20-29l30 3c5 15 12 25-1 51-6 10-5 6-9 9-5 22-30 49-46 49-20-1-15-10-18-12-27-42 40-123 56-148v-18l-24 15c5-12 47-73 60-77v51zM114 1441c-10 12-5 3-6 18 0 1 1 14 2 16 1 12 2 25 3 37 36 303 170 587 389 791 226 212 558 367 897 356 155-5 373-46 509-118 11-6 20-12 28-15 81-33 198-113 265-168 15-12 24-25 38-37 80-70 120-120 186-208 40-54 82-130 112-198 85-187 101-307 119-510l-323-2c-14 71-13 141-33 211-18 66-39 115-66 175-147 329-539 549-910 528-372-20-708-254-840-599-52-135-66-253-61-413-3 17-2 37-3 56 0 7 0 26-1 31l-6 17c0-1-2 3-3 6l-296 26z"/><path class="fil2" d="M363 1339l-215-27c-10-36 7-91 25-106 41-15 168 5 197 29 5 34-1 70-7 104zm2140-125l81-11 6 41-218 42-7-45 69-32c-4-3 0-3-14-4-22-2-29 8-62 8l-5-40c30-8 196-41 217-38l6 35c-35 25-54 29-73 44zm-2331-69l6-41c15-1 190 37 216 54l-8 43-200-48c-8-4-10-5-14-8zm2370-63c-20 31-92 42-131 52-68 19-110-32-83-82 15-27 169-85 206-45 15 15 22 53 8 75zM227 950c25 2 187 62 210 72l-12 41-75-2c9 9 0 3 13 10l49 17-9 38c-30-1-174-56-210-70l12-41 84 4-71-31 9-38zm2075 68l-21-46c46-20 165-84 205-90l15 40c-18 16-171 87-199 96zM384 856c48-12 74 10 104 33 2 41-24 81-41 107-49-10-138-79-196-98 31-125 123-98 133-42zm1992-89c12-5 20-11 33-15 15 14 50 74 56 94-40 24-18 21-56 0-51 22-95 63-146 83l-27-37c22-20 118-79 147-89l-7-36zM345 733c7-25 23-41 40-58 20 4 174 87 192 108l-25 39c-78-32-36-10-21 25-9 16-19 27-32 37-30-40-116-108-154-151zm1862 115c-12-8-7 3-18-24l-2-9c-16 6-21 11-13 26l-8-45c-7-19-7-9-13-33 36-15 160-96 193-107l40 57-155 153c-15-7-4-1-12-7l-12-11zm-145-173c14-19 136-143 156-153 116 75 40 121 1 161-18 18-54 63-81 59-20-2-67-52-76-67zM605 707c-14 6-15-5-8 12l17 25-25 26c-14-7-157-134-164-145 9-15 13-15 21-32 33 5 58 28 88 36l-60-61 24-28c24 12 24 19 43 36 15 14 22 20 40 36 29 28 56 46 81 76-8 10-14 16-23 29l-34-10zm-57-209c12-12 40-36 57-47 31-18 50-2 69 18 15 16 31 40 48 60 16 19 36 36 39 71-10 19-59 63-78 68-21-20-124-146-135-170zm1539 26c3-14 25-24 48-65 21 5 26 11 39 20-12 22-115 161-133 176l-32-23 29-87c-12 23-35 48-54 67-21-8-19-8-32-25l133-172 31 20-29 89zm-749-335l52-2-3 171c2 1 4 1 5 2 3 10 0 1 9 4 16 7 3-2 17 7l-1 38-80-1 1-219zM809 479l-12-2 1 16c15 24 33 44 39 70l-39 20c-19-17-109-161-117-186 16-13 20-17 40-22 24 23 26 50 50 59-2-28-22-50-35-69l41-29c19 23 108 163 115 187-12 9-23 18-38 24-12-13-34-44-45-68zm1088 35c19-2 17-10 28-30 9-15 14-24 22-41 16-28 33-60 47-86l43 19c-6 33-41 86-56 113-20 37-44 90-101 62-55-28-24-78-4-116 14-25 48-91 63-108l43 20c-16 44-81 133-85 167zm-27-162c-13 34-34 113-60 131-43 29-108-7-88-75 9-28 43-119 60-131 41-29 116 5 88 75zm-378-22l-16 82-43-3 22-221c49 2 70 4 102 25 18 129-35 110-65 117zM945 447l8 4-3-11c3-30-54-115-57-158l42-17c18 34 33 74 51 115 19 43 40 95-15 115-64 24-75-27-92-66-17-36-40-85-49-120l43-19c23 31 52 136 72 157zm731-79l-23 79-46-10c4-63 40-154 53-213l83 19c-1 9 0 15-3 24-15 37-3 9-18 14-1 1-48-3-25 34 15 25 22-3 18 29-3 28-21 17-39 24zm-610-145c9-22 19-8 45-14l47-3 47 216-51 8-18 8-48 5-44-211 22-9zm201 21l1 26c19 16 13 2 35 12l2 32-31 10 1 41 38 11 3 37-88 5c-1-59-20-174-10-222l80-5 3 43c-9 2-4-1-16 3l-18 7zM114 1441l296-26c1-3 3-7 3-6l6-17c1-5 1-24 1-31 1-19 0-39 3-56 22-67 7-163 108-350 104-191 285-354 496-431 366-134 772-51 1037 224 158 164 259 360 269 655l323 2c-7-221-33-356-110-537l-52-106c-51-95-136-209-209-279C1894 105 1343-7 839 228c-145 68-286 170-381 273-165 180-277 384-329 642-11 57-39 252-15 298z"/><path d="M2656 1405c-18 203-34 323-119 510-30 68-72 144-112 198-66 88-106 138-186 208-14 12-23 25-38 37-67 55-184 135-265 168-8 3-17 9-28 15-136 72-354 113-509 118-339 11-671-144-897-356-219-204-353-488-389-791-1-12-2-25-3-37-1-2-2-15-2-16 1-15-4-6 6-18-24-46 4-241 15-298 52-258 164-462 329-642 95-103 236-205 381-273C1343-7 1894 105 2285 483c73 70 158 184 209 279l52 106c77 181 103 316 110 537zM1329 12l-6 9-3 3-28 36c-17 24-18 31-45 31 11-11 47-52 49-77-41-9-49 5-80 17-8 18-15 27-27 47-11 16-12 25-36 25 12-18 45-53 42-79-64 6-38 12-80 24-7 18-12 29-22 48-13 24-10 22-33 29l35-76c-35-4-35 2-64 14l-10 8c-7 16-12 24-20 45-18 45-16 31-32 34 8-28 24-47 26-81-53 10-46 13-75 39-6 17-10 29-16 47-8 28-4 24-27 31l24-78-34 2c-23 16-27 17-41 39-4 16-7 30-12 49-6 25-4 21-25 28l17-78-28 6c-23 5-20 12-38 27-9 36-9 79-36 94l12-81c-35 1-47 20-64 40-4 22-6 33-8 57-3 30 1 29-21 36l8-77-26 3c-16 8-25 18-32 35l-17 95c-18-16-8-34-8-72h-17c-25 12-35 24-41 49-9 53 9 65-10 93-7-10-7-1-9-37-1-16-1-29-2-44-29 5-42 23-53 50-2 41 14 79-9 105l-8-82-23 4c-12 13-21 20-27 40-6 53 20 84-5 115l-12-81-22 1-14 12c-26 89 4 71 3 144-14-14-13-10-21-37-6-19-6-19-8-40l-25 3c-4 15-11 16-16 37-3 38-2 41 10 71 22 54 6 46-2 52-3-19-5-26-12-44-11-29-3-36-30-34-4 11 5 2-7 7-31 107 27 100 13 161-4-6-5-4-10-13-37-69-8-72-46-65-3 11-8 15-12 28-6 86 49 97 28 143-12-21-27-63-43-82l-17 4-7 21c-3 67 12 70 35 110 18 29 0 29-3 33-12-36-26-39-37-72H69l2 4c-14 37-17 60 5 94 34 51 44 28 36 74l-46-64c-11-12-2-11-21-14-11 27-11 39-12 71l32 39c22 24 6 18 34 35v16l-8 19-8-12c-5-24-32-50-48-69l-14 3c-9 41-3 40-2 76 2 1 4 2 5 3s3 2 4 3l15 18c49 52 53 21 44 72l-18-23c-18-24-39-52-62-49-4 32 0 55 9 80 46 31 28 39 71 47l1 37c-20-13-11-13-40-36-17-13-21-26-44-26 1 44 2 36 9 74 2 1 4 3 5 4s3 2 5 3l71 49-3 27c-12-13-19-21-35-31-8-6-18-14-23-17l-18-3c-11 30 0 41 9 71l-1 1c18 10 33 18 53 29 22 13 29 14 28 41-17-12-54-43-81-45l5 45 14 31c20 8 29 14 51 25 28 14 27 7 32 35-25-12-57-36-84-39-2 49 16 49 20 73 22 8 29 14 54 24 24 9 33 8 34 33-21-11-55-30-85-31 9 56 10 37 37 75 18 6 29 10 48 15 27 8 25 7 34 30l-82-27 12 53 21 18c24 8 33 10 58 17 25 6 25 6 32 27l-81-21 7 42c15 12 14 18 37 28 39 8 71 5 82 34l-78-15 11 44 29 21c23 6 27 7 53 9 31 3 27 1 37 20l-77-8 3 29c13 13 26 31 51 35 32 5 52-3 77 12-9 7 16 7-28 10-12 1-26-2-38-3l-6 18c11 17 17 25 40 37 48 9 67-6 102 18l-77 4 7 26 29 24c31 4 35 7 66 3 34-5 26-1 45 12l-73 9-2 9 11 19 38 19 94-5c-16 21-30 20-67 21l4 25c9 4 21 14 30 21 60 7 62-8 111-9-13 19-22 23-63 25l-1 17 29 23c25 3 44 7 68-1 27-9 30-20 52-5l-62 24v21l31 14c26 2 42 5 66-5 69-31 43-13 53-4l-63 24c16 44-1 3 39 35 25-4 39-1 63-14 21-10 29-23 51-12-16 14-34 23-57 31l-3 14 28 16c84 6 65-27 124-33-17 22-32 30-59 41l5 20c19 0 40 7 73 7 10-10 55-42 67-43 28-1 2-1 12 4l-58 44c2 2 6 14 8 17l58 6c11-11 1-4 20-15 53-29 30-40 75-38-21 18-52 32-63 58 24 14 56 10 81 7l17-18c23-20 38-45 64-37-31 26-23 30-59 48l12 26c46 2 39-2 71-14 1-2 3-6 4-5 0 2 2-3 3-4l37-40c18-16-4-5 24-11-13 19-26 42-46 53l3 21c64 2 41-4 80-18 11-22 25-55 58-61-18 28-20 39-39 52l1 21c49-2 48-11 75-16 27-49 28-64 58-70-12 24-31 46-33 68 31 4 30 2 58-8l21-15c12-24 20-56 48-63-9 22-28 49-28 69 52 5 41-11 72-19 8-20 13-22 20-43 10-24 4-28 30-33-10 24-24 45-21 71 51-5 45-15 74-34 10-36 12-57 30-71 3 5 11 2 0 32-5 14-8 19-12 34l49-7 26-28c7-29 11-59 25-73 2 3 13-1 4 33-7 24-8 11-9 35l26-2c20-5 32-18 41-34l19-76c8 6 16-9 10 30-1 13-5 22-8 34l45-8c5-12 16-21 21-33l15-76c13 12 12-24 12 26 0 11-3 25-4 39l34-9c12-11 21-17 25-36 13-46-5-64 23-85l1 69 26-6 21-21c18-48 2-92 27-108l3 71 21-4c17-12 27-24 34-50 0-32-9-61 2-87l11 26c4 17 4 24 3 41l20 1c20-17 26-25 32-50 3-42-13-62-3-94l13 31c4 17 4 22 5 40l21-4 17-17c6-27 13-47 6-75-6-28-14-32-3-56 35 48-7 63 42 68l13-15c18-86-16-88-6-138 13 14 24 50 27 68h18c8-9 10-9 14-22 22-85-28-82-15-135 6 7 4 3 11 15l27 57 19-7 3-13c11-42 12-54-11-89-23-36-9-36-9-60 8 20 12 25 23 43 10 18 7 35 26 32l10-13c24-104-55-101-28-153l43 72 17-3c5-28 7-32 9-67-3-5-5-6-10-13-35-53-47-49-39-84 13 20 38 67 60 70 19-24 12-31 16-63l-8-9c-1-1-5-7-6-8-32-52-57-52-45-82 1 1 2 3 3 3 27 31 40 62 66 61 1-19 3-46 3-74-8-6-5-3-12-11-43-47-57-46-54-81 7 7 0-2 10 11l54 56 18-8-1-46-11-23-65-57c-12-15-4-23-2-30 9 16 53 62 76 58 10-47-10-57-10-78-28-15-74-39-75-72 20 15 47 37 69 51 5-6 9-4 15-8-4-46-16-49-21-74-43-20-75-29-75-63 20 13 50 37 79 45l-4-52-13-24c-18-8-30-16-50-26-27-13-27-10-33-35 20 11 63 37 82 36 4-42-10-57-29-76-62-27-68-18-79-50 25 10 56 25 81 31l-3-40c-12-19-13-20-30-36-34-14-72-15-82-46 26 7 53 22 79 25 1-29-4-31-13-56-13-5-8-8-24-16-37-14-70-8-81-41 14 5 19 6 36 10 33 8 25 11 44 1l-7-28-24-28c-22-6-34-10-57-13-28-5-30-3-39-25l80 14-5-29c-11-22-25-30-46-40-37-5-64 3-81-25l81 8c-7-39-28-56-58-65-37-4-69 8-82-20l77 3-5-26c-15-17-23-28-52-35-30-1-60 9-83-8 6-5 2-6 29-8 15-1 23-1 41 1l5-18c-13-16-21-30-45-34-51-11-72 11-101-10 1-1 3-2 3-3 1 0 3-1 4-2l69-7-11-27-10-12c-112-31-91 19-131-13 16-10 48-13 73-14l-2-17c-12-20-24-25-46-30l-99 12c6-9-3-10 30-20 15-5 21-5 39-6l-5-22c-12-9-24-17-41-21-27-1-38-1-61 8-60 23-47 3-50 0l69-20v-19c-19-13-20-18-45-21-28 2-37 0-60 11-65 31-50 7-52 5l66-26-1-23-1 1c-109-35-89 23-157 16 14-16 48-27 69-42l-6-19-19-4c-81-10-108 51-138 29 17-10 26-15 39-22 22-14 30-10 28-32-36-13-32-9-75-13-9 9 4-1-12 11-48 34-43 40-80 37 4-4 4-4 12-10l8-5c22-15 23-20 50-29l-4-23-65-6-48 36c-4 3-19 16-21 17-29 18-25 2-26 1 14-13 23-17 37-28 0-1 17-14 17-15 13-13 16 5 8-23l-66-7-45 41c-16 15-26 31-56 24 25-16 70-46 68-74h-6c-46-5-64 2-91 28-50 48-25 51-63 47l20-19c20-23 39-41 35-57-19-8-50-1-67 3z" fill="#040604"/><path d="M445 1450c-45-746 782-1210 1418-831 44 26 106 68 136 98 172 165 286 348 306 612 23 290-107 521-240 671-144 163-391 276-627 294-138 10-279-15-398-60-332-126-574-428-595-784zm-22-145c-5 160 9 278 61 413 132 345 468 579 840 599 371 21 763-199 910-528 27-60 48-109 66-175 20-70 19-140 33-211-10-295-111-491-269-655-265-275-671-358-1037-224-211 77-392 240-496 431-101 187-86 283-108 350z" fill="#0a0a04"/><path d="M1012 1227l-14 246c83 20 78 26 134 60 87 53 54 18 98 12 24-3 27 9 30 14l5 3c45 24-17 21 59 26l15 22 40 10c2-1 10-4 11-4 10 1 9 2 13 4 28 10 45 2 72-8l-60-35c33-21 40 52 115-1-28-32-60-19-88-70 35 9 54 56 118 50 10-17 23-30 29-56-10-8-21-12-35-20-2-1-17-9-17-9-19-14-8-1-13-18-20-6-14-6-32-19-11-8-16-10-27-17-21-13-47-17-59-40-19-4-21-9-35-22-79 24-61 168-157 122-3-23 2-40 8-59 33-108-27-28 67-155 24-33 32-63 93-43 44 15 65 33 113 20-30-56-40-44-121-44-38 0-92 16-130 29-37 12-79 53-113 45-38-10-76-35-119-43z" fill="#fa4901"/><path class="fil6" d="M1012 1227c43 8 81 33 119 43 34 8 76-33 113-45 38-13 92-29 130-29 81 0 91-12 121 44-48 13-69-5-113-20-61-20-69 10-93 43-94 127-34 47-67 155-6 19-11 36-8 59 96 46 78-98 157-122 14 13 16 18 35 22l23 6c2 1 15 7 16 7 35 17 59 56 96 17 48-51-29-111-31-138 22 7 46 46 53 75 11 50-9 74-42 93l3 16c32 5 20 16 54 26 15 5 12 0 27 10 64-51 27-36 151-45l9-245c-329 50-228 49-288-4-22-18-37-8-70-9-160-2-242 76-265 75-14-1-103-38-123-45-10 6-2-2-7 11z"/><path class="fil7" d="M383 904c9-5-12-8 19-5 21 2 35 15 38 33-14-1-17-4-29-9l-28-19zm-27-15c-22-6-37-11-47-28 14-2 22-4 32 3 16 11 9 6 15 25zm28-33c-10-56-102-83-133 42 58 19 147 88 196 98 17-26 43-66 41-107-30-23-56-45-104-33zM798 493c-9-10-8 5-7-20 34-6 10-2 18 6 11 24 33 55 45 68 15-6 26-15 38-24-7-24-96-164-115-187l-41 29c13 19 33 41 35 69-24-9-26-36-50-59-20 5-24 9-40 22 8 25 98 169 117 186l39-20c-6-26-24-46-39-70z"/><path class="fil8" d="M1111 209c4 57 19 59 3 84-15-17-16-50-21-72l-27 2-22 9 44 211 48-5c-2-21-5-36-9-55-5-24-12-34 7-41l20 88 51-8-47-216-47 3z"/><path class="fil7" d="M702 607c-16-11-84-93-91-115 24 4 24 9 35 24 30 38 66 68 56 91zM548 498c11 24 114 150 135 170 19-5 68-49 78-68-3-35-23-52-39-71-17-20-33-44-48-60-19-20-38-36-69-18-17 11-45 35-57 47zM350 1061l75 2 12-41c-23-10-185-70-210-72l-9 38 71 31-84-4-12 41c36 14 180 69 210 70l9-38-49-17c-13-7-4-1-13-10z"/><path class="fil8" d="M189 1259c11-8-15-4 18-7 2-1 116 8 125 26-16 10-121-8-131-11-12-4-6-3-12-8zm174 80c6-34 12-70 7-104-29-24-156-44-197-29-18 15-35 70-25 106l215 27z"/><path class="fil7" d="M2127 691c6-27 11-26 47-60 21-19 36-41 55-48 4 32-79 102-102 108zm-65-16c9 15 56 65 76 67 27 4 63-41 81-59 39-40 115-86-1-161-20 10-142 134-156 153z"/><path class="fil8" d="M2503 1214c19-15 38-19 73-44l-6-35c-21-3-187 30-217 38l5 40c33 0 40-10 62-8 14 1 10 1 14 4l-69 32 7 45 218-42-6-41-81 11z"/><path class="fil7" d="M597 719c-20-10-28-13-41-37l49 25 34 10c9-13 15-19 23-29-25-30-52-48-81-76-18-16-25-22-40-36-19-17-19-24-43-36l-24 28 60 61c-30-8-55-31-88-36-8 17-12 17-21 32 7 11 150 138 164 145l25-26-17-25zM950 440c12 14 13 2 6 22l-11-15c-20-21-49-126-72-157l-43 19c9 35 32 84 49 120 17 39 28 90 92 66 55-20 34-72 15-115-18-41-33-81-51-115l-42 17c3 43 60 128 57 158zM1897 514c4-34 69-123 85-167l-43-20c-15 17-49 83-63 108-20 38-51 88 4 116 57 28 81-25 101-62 15-27 50-80 56-113l-43-19c-14 26-31 58-47 86-8 17-13 26-22 41-11 20-9 28-28 30zM2116 435l-31-20-133 172c13 17 11 17 32 25 19-19 42-44 54-67l-29 87 32 23c18-15 121-154 133-176-13-9-18-15-39-20-23 41-45 51-48 65l29-89z"/><path class="fil8" d="M2361 1078c39-10 110-37 150-37-16 28-81 37-111 45-38 10-33-2-39-8zm181 4c14-22 7-60-8-75-37-40-191 18-206 45-27 50 15 101 83 82 39-10 111-21 131-52zM1766 453c1-32 24-80 37-116 2-3 7-17 8-18 9-13 1-5 16-13-1 30-24 86-37 118-10 26-6 20-24 29zm104-101c28-70-47-104-88-75-17 12-51 103-60 131-20 68 45 104 88 75 26-18 47-97 60-131z"/><path class="fil7" d="M481 783c-17 8-15 6-33-12-10-10-16-16-23-26 18 7 46 21 56 38zm18 101c13-10 23-21 32-37-15-35-57-57 21-25l25-39c-18-21-172-104-192-108-17 17-33 33-40 58 38 43 124 111 154 151zM2253 773c-4-20 1-19 21-29 12-7 24-13 38-18-16 17-35 47-59 47zm-87 23c12 6 10 5 21 12 13-12 67-41 13 20l7 20 12 11c8 6-3 0 12 7l155-153-40-57c-33 11-157 92-193 107 6 24 6 14 13 33zM1501 288c-9-19-4-42 7-56 12 13 18 42-7 56zm-9 42c30-7 83 12 65-117-32-21-53-23-102-25l-22 221 43 3 16-82z"/><path class="fil9" d="M682 1339c-104 34-42 146 54 119 100-28 48-154-54-119z"/><path class="fil6" d="M1024 963c45 35 37 48 65 62 35-66 8-275-25-332-6 80-41 249-40 270z"/><path class="fil2" d="M1622 2114l6-3c-42-59-145-195-237-212 4 118 1 88 160 173 19 11 58 38 71 42z"/><path class="fil10" d="M1672 2104c5-241 115-235-12-347-43 62-15 278 12 347z"/><path class="fil8" d="M1285 237c12-4 7-1 16-3l-3-43-80 5c-10 48 9 163 10 222l88-5-3-37-38-11-1-41 31-10-2-32c-22-10-16 4-35-12l-1-26 18-7z"/><path class="fil2" d="M1107 670l-12 3c52 78 147 186 237 213-6-162-40-82-225-216zM1105 2111l7 2c23-6 106-59 140-76 86-43 67-20 83-130-83 8-219 173-230 204z"/><path class="fil6" d="M1019 1835c-1 36 15 86 22 126 8 47 13 89 17 137 28-55 64-242 27-322 0-1-1-3-2-5-21 14-38 42-64 64zM1700 1717c8 9 56 44 68 50 35 17 156-56 278-73-133-9-235-32-346 23zM1053 1721c-124-47-180-49-334-36l175 61c76 31 55 42 121 4l38-29z"/><path d="M697 1104c65 4 131 7 196 4 86-3 93-12 158-39-12-13-58-44-76-51-22-8-63 19-87 28-49 19-133 53-191 58z" fill="#0a5b04"/><path class="fil2" d="M1602 695l1-13-15-1c-17 7-177 95-183 101l-17 95c79-13 191-140 214-182z"/><path class="fil6" d="M1649 1044c79 57 196 64 312 64l-18-11c-7-4-15-6-23-9-15-6-24-11-39-18-28-12-51-23-78-36-22-11-53-37-77-32-25 4-64 27-77 42z"/><path class="fil10" d="M1618 996c19-10 59-49 73-67l-22-252c-17 35-34 104-44 148-18 76-20 90-7 171z"/><path class="fil7" d="M1676 368c18-7 36 4 39-24 4-32-3-4-18-29-23-37 24-33 25-34 15-5 3 23 18-14 3-9 2-15 3-24l-83-19c-13 59-49 150-53 213l46 10 23-79z"/><path class="fil6" d="M887 852c-83 29-13 151 66 126 79-26 12-154-66-126z"/><path class="fil1" d="M886 1815c-89 41-55 158 35 120 74-31 59-163-35-120z"/><path class="fil6" d="M1795 1824c-16 9-25 10-27 38-4 61 69 104 114 76 65-39-13-157-87-114z"/><path class="fil7" d="M2465 846c-6-20-41-80-56-94-13 4-21 10-33 15l7 36c-29 10-125 69-147 89l27 37c51-20 95-61 146-83 38 21 16 24 56 0z"/><path class="fil2" d="M1347 609c-76 22-50 170 30 140 69-26 42-161-30-140z"/><path class="fil6" d="M1803 847c-100 35-68 149 15 120 82-28 70-150-15-120z"/><path class="fil2" d="M917 1373c-16-83-145-184-203-221l77 132c41 75 17 84 126 89zM1828 1370c95-5 87-11 113-64l57-103c14-22 22-28 31-52-45 20-180 136-201 219zM2022 1629l5-5c-1-1-101-184-107-192l-87-13c26 65 37 80 80 120 21 20 83 79 109 90zM1336 2058c-67 41-18 163 50 126 59-32 28-174-50-126z"/><path class="fil9" d="M731 1605c6 18-16 17 21 12 31-43 143-102 159-194-140 14-66 11-180 182z"/><path d="M1337 408l80 1 1-38c-14-9-1 0-17-7-9-3-6 6-9-4-1-1-3-1-5-2l3-171-52 2-1 219z" fill="#fafaf6"/><path class="fil2" d="M1988 1346c-80 31-19 124 60 99 81-26 28-134-60-99z"/><path class="fil7" d="M2302 1018c28-9 181-80 199-96l-15-40c-40 6-159 70-205 90l21 46z"/><path class="fil13" d="M2134 2110c2 15 6 13-9 10-20 20-41 60-21 97 27 5 26 3 43-10-12 34-57 57-106 63 18-30 47-45 38-100l-37-5c-1 17-3 9 2 17-18 9-20 9-29 27 20-8 52-21 38 25-8 27-33 30-53 38 0 2 2 7 2 8l-6 14v8l38-2c44-12 79-23 101-51 17-21 40-83 39-119-15 25-12 58-48 59-8-15-9-32-5-51 19-3 14-3 29 4 3-32-1-8 9-33l-25 1z"/><path class="fil8" d="M186 1153l200 48 8-43c-26-17-201-55-216-54l-6 41c4 3 6 4 14 8z"/><path class="fil14" d="M1187 1625c5 37 10 22 43 26 24 3 17 27 44 33 22 4 12-3 30-1 18 1 8 4 26 5 25 1 43-14 51-27v-16l-2-25-40-10-2 27c-11-2-5 1-17-7-16-10-22-26-42 4 6 25 8 20 30 27-42 31-51-9-61-24 11-9 8-5 17-13l16-15c18-14 2-1 32-14l12-7c-76-5-14-2-59-26l7 14c-20 24-2-11-60 7 3 20 0 21 13 35l13 12c1-1 2 2 3 4l-31 8c-21-16-13-21-23-17z"/><path class="fil15" d="M1932 2217l31-2-5 16 50-33c-8 20-32 28-51 45l7 31c7 11 2 4 8 18 1 2 5 12 5 14 6 11 3 5 9 11 18-16-7 7 35-10l13-7-38 2v-4-4l6-14c0-1-2-6-2-8 20-8 45-11 53-38 14-46-18-33-38-25 9-18 11-18 29-27-5-8-3 0-2-17-45 2-111 3-110 52z"/><path d="M1403 1620c-15 9-12-15-12 9 23 11 9-1 17 15l-27 1v16c45-9 40-18 69-28 27-10 73-33 92-54 15-18 17-11 30-21 27-22 18-44 33-69-15-10-12-5-27-10-34-10-22-21-54-26 5 17-6 4 13 18 0 0 15 8 17 9 14 8 25 12 35 20-6 26-19 39-29 56-64 6-83-41-118-50 28 51 60 38 88 70-75 53-82-20-115 1l60 35c-27 10-44 18-72 8z" fill="#2c150d"/><path class="fil17" d="M1937 2267c8 17-25 14 21 14 0-21-3-4 6-7l-7-31c19-17 43-25 51-45l-50 33c-12 11 18 7-19 10-8-16-12-2 10-17l-17-7c-1-49 65-50 110-52 7-4 14-6 25-10s3 1 13-6c20-13 6-6 10-12-14 4-12 5-30 3 15-17 6-16 6-17-25 21-75 22-110 42-22 13-80 58-38 86-7 7-6 5-14 15l39-13c2 28 2 4-6 14z"/><path d="M1176 1621c30 0 3-7 8-40 31-11-4-5 29-17 16-6 30-5 47-5-3-5-6-17-30-14-44 6-11 41-98-12-56-34-51-40-134-60 29 47 86 8 109 74 10 29 37 55 61 39l8 35z" fill="#153115"/><path class="fil17" d="M1877 2481l-6-1c-41-1-46 6-76-17l18-30c-24-2-46-1-64-12-42 6-42-12-59 27l91 23c7 10-1 2 9 10-2 0-9-2-12-2l-12 5c4 5 6 11 24 16 29 6 62-5 87-19z"/><path class="fil13" d="M918 2425c-26-10-22-18-15-45l35-7c-4 30 0 39-20 52zm-46-55c-19 38 16 68 59 64 13-7 17-7 27-25 11-20 0-20 17-26 23-3 11 5 23-6l-28-8-8-44c-17-19-1-8-17-10l-6 4-2 44-65 7z"/><path class="fil17" d="M1540 2585l4-7c-45 2-59-6-76-37l10-21c-23-22-34-43 3-63 19-9 19-3 32-20-40 5-72 22-91 47 3 31 18 37 33 55l-7 9-14 10c24 26 56 39 106 27zM705 2260l-49 1c-21-25-39-68 14-70 38 12-9 45 38 44 15 7 0 3 7-5-8-40-47-66-95-56-54 28 29 147 85 86zM2301 2064c-23 23-16 21-42 16l-2-50c26 19 40-16 44 34zm0 0c4-3 3 1 9-9 13-26 6-36 1-51l-30-3c-6 20 3 14-20 29 10-40 24-49 38-76l-6-1c-16 25-83 106-56 148 3 2-2 11 18 12 16 0 41-27 46-49z"/><path class="fil13" d="M1203 2472c-13 8-42 37-64 12-10-12-11-25-4-43 20-48 53 10 56 13l19-15c-24-53-117-26-113 25 5 56 99 64 106 8z"/><path class="fil17" d="M1399 2452l-9-6c-57-7-114 58-65 88 32 19 125-13 56-67-8 4-15 7-26 10 3 4 17 18 19 20 14 22-2 32-17 30-29-5-29-66 42-75z"/><path class="fil19" d="M2090 2137c-4 6 10-1-10 12-10 7-2 2-13 6s-18 6-25 10l37 5c9 55-20 70-38 100 49-6 94-29 106-63-17 13-16 15-43 10-20-37 1-77 21-97l-35 17z"/><path class="fil14" d="M1406 1377c12 23 38 27 59 40 11 7 16 9 27 17 18 13 12 13 32 19l-3-16c33-19 53-43 42-93-7-29-31-68-53-75 2 27 79 87 31 138-37 39-61 0-96-17-1 0-14-6-16-7l-23-6z"/><path d="M716 2192l7 5c21 12 19 3 31 26l14-3c-13-17-29-33-37-63 52 3 40 31 56 36 15 5 16-8 16-8-22-18-42-37-85-41-18-47-20-31-48-43 10 33 48 73 46 91z" fill="#e7fada"/><path class="fil13" d="M2158 2072c0-1-11-5 5-7l10 3c1-2 4 2 6 3 0 2-2 5-2 6l-12 16 9 37 27 48c4-5 6-6 10-12l6-7c6-7 1 2 8-12l-43-89 49-62-73 76z"/><path class="fil8" d="M600 2117l-18-14c-14 0-1 2-5-13-18 21 3 17-40 10 19 38 33-2-1 78l32 22 32-83z"/><path class="fil21" d="M705 2260c11-12 4 25 6-11 0-1-2-11-3-14-47 1 0-32-38-44-53 2-35 45-14 70l49-1z"/><path class="fil7" d="M713 2324l21-4 2 18c19-19 27-67 35-95-4-3-12-3-17-20-18 10-18 22-26 46-6 18-12 35-15 55z"/><path class="fil13" d="M1061 2373c-32 2-5 6-30-3l-16 106 32 3 14-106z"/><path d="M1176 1621l11 4c10-4 2 1 23 17l31-8c-1-2-2-5-3-4l-13-12c-13-14-10-15-13-35 58-18 40 17 60-7l-7-14-5-3c-17 0-31-1-47 5-33 12 2 6-29 17-5 33 22 40-8 40z" fill="#0c4c0c"/><path class="fil17" d="M479 2066c-7-14-10-14-19-31-16-28-6-17-33-29 9 39 39 128 80 138-6-25-29-64-28-78z"/><path class="fil7" d="M1264 2417c-31 3-30-10-33 28-2 25-2 51-2 77h31l4-105z"/><path d="M1339 1610l-15-22-12 7c-30 13-14 0-32 14l-16 15c-9 8-6 4-17 13 10 15 19 55 61 24-22-7-24-2-30-27 20-30 26-14 42-4 12 8 6 5 17 7l2-27z" fill="#0b4a13"/><path class="fil7" d="M2293 1935v18l6 1c11 13 15 19 24 32l15 23c1 1 3 2 4 3 0 1 2 2 3 3 1-1 2-5 3-4l17-29-36-58c-19 8-6-17-13 12-15 0-13 4-9-11h-1c0 18 4 14-13 10zM1554 2509l10 2 21-2-13-107-29 12z"/><path class="fil15" d="M2134 2110l25-1c-10 25-6 1-9 33-15-7-10-7-29-4-4 19-3 36 5 51 36-1 33-34 48-59l-9-37-10-4-21 21z"/><path class="fil13" d="M1749 2421c33-10 49-31 44-72-29-17-48-20-69 16 71 6 35 39 25 56zM479 2066c3 3 3 4 10 9 11 9 29 19 42 14 7-5 2-3 4-12l1-30c-2-37-15-38-44-47 7 20 17 39 16 67l-29-1z"/><path class="fil24" d="M536 2047l-1 30c6-7 3-1 8-12 0-1 3-8 4-10 13 17 22 17 30 35 4 15-9 13 5 13l18 14c28 4 4-3 26 12 10 7 15 9 27 14-7-28-2-11-25-30l-76-76c-2 2-6 0-7 3-4 14-3 2-9 7z"/><path class="fil25" d="M2361 1078c6 6 1 18 39 8 30-8 95-17 111-45-40 0-111 27-150 37z"/><path class="fil8" d="M1963 2365l1-21c17-6 6 5 21-10l1-17c-6-6-3 0-9-11 0-2-4-12-5-14-6-14-1-7-8-18-9 3-6-14-6 7-46 0-13 3-21-14-1-1-2-4-2-3l-6 4c5 19 10 33 16 52 6 20 5 29 18 45z"/><path class="fil26" d="M1766 453c18-9 14-3 24-29 13-32 36-88 37-118-15 8-7 0-16 13-1 1-6 15-8 18-13 36-36 84-37 116z"/><path class="fil27" d="M24 1538c-9-30-20-41-9-71l18 3c5 3 15 11 23 17 16 10 23 18 35 31l3-27-71-49c-2-1-4-2-5-3s-3-3-5-4l6 19c-18 9-21 17-18 40 3 32 20 41 23 44z"/><path class="fil25" d="M2127 691c23-6 106-76 102-108-19 7-34 29-55 48-36 34-41 33-47 60z"/><path class="fil28" d="M45 1057c19 3 10 2 21 14l46 64c8-46-2-23-36-74-22-34-19-57-5-94-11 6-9-7-19 20-3 11-3 21-2 32 2 13 8 15 4 27l-9 11z"/><path class="fil26" d="M189 1259c6 5 0 4 12 8 10 3 115 21 131 11-9-18-123-27-125-26-33 3-7-1-18 7z"/><path class="fil25" d="M702 607c10-23-26-53-56-91-11-15-11-20-35-24 7 22 75 104 91 115z"/><path class="fil29" d="M2660 1877c12-12 3 16 16-21l-5-45c9-8 9-4 21-18l-17 3-43-72c-27 52 52 49 28 153z"/><path class="fil27" d="M145 778c38-7 9-4 46 65 5 9 6 7 10 13 14-61-44-54-13-161-19 14-21 36-21 70-30 4-13 3-22 13z"/><path class="fil28" d="M69 963h20c11 33 25 36 37 72 3-4 21-4 3-33-23-40-38-43-35-110-19 22-14 27-7 56-38 6-2-2-18 15z"/><path class="fil29" d="M1983 150c-21-25-36-21-76-21-9-26-2-11-18-24l6 19c-21 15-55 26-69 42 68 7 48-51 157-16z"/><path class="fil27" d="M101 871l17-4c16 19 31 61 43 82 21-46-34-57-28-143-7 8-5-11-11 22-1 8 1 17 2 25l-23 18zM245 606l25-3c2 21 2 21 8 40 8 27 7 23 21 37 1-73-29-55-3-144-12 11-7-2-16 24-3 7-5 25-7 33-45 1-16 1-28 13zM1031 63c29-12 29-18 64-14l-35 76c23-7 20-5 33-29 10-19 15-30 22-48-24 2-12-12-45-10-21 1-30 13-39 25zM28 1609l-5-45c27 2 64 33 81 45 1-27-6-28-28-41-20-11-35-19-53-29 6 35 0 3-8 32-3 12-4 10 1 24 5 15-1 7 12 14z"/><path class="fil30" d="M1544 2578l-4 7c80-20 56-44 32-65l-8-9-10-2 5 18c-23 9-23 6-34 28 23-7 23-11 49-4-2 18-8 17-30 27z"/><path d="M1396 9c4 16-15 34-35 57l-20 19c38 4 13 1 63-47 27-26 45-33 91-28-6-4-6-6-18-9-29-5-45 6-64 17-4-5-17-9-17-9z" fill="#8f918e"/><path class="fil27" d="M2523 2139c8-7 3 3 12-12l4-11c8-28-12-15 12-37 1-1 7-4 7-7 1-2 3-2 4-3h-18c-3-18-14-54-27-68-10 50 24 52 6 138z"/><path class="fil29" d="M150 1989l-7-42 81 21c-7-21-7-21-32-27-25-7-34-9-58-17 6 33-3 14 1 40 5 36 5 17 15 25z"/><path class="fil30" d="M1299 2412c9 7-10 5 24 9l83-1c31-2 71-2 97-15l-204 7z"/><path class="fil27" d="M1870 101c-14-20-33-11-58-8-4-38 2-4-13-17 2 22-6 18-28 32-13 7-22 12-39 22 30 22 57-39 138-29z"/><path class="fil29" d="M2621 1964c19-15 15-29 13-58 25-12 5-4 16-16-19 3-16-14-26-32-11-18-15-23-23-43 0 24-14 24 9 60 23 35 22 47 11 89zM2732 1215c2-25 8 4 13-31 0-3 0-18-1-20-4-18-2-10-12-19l4 52c-29-8-59-32-79-45 0 34 32 43 75 63z"/><path class="fil30" d="M1871 2480l6 1c49-36 67-75 5-67-14 16-26 24-31 47 15-10 24-21 51-25-11 36-12 20-31 44z"/><path class="fil29" d="M715 2574c12 10-8 5 25 12 0 0 17-1 19-1 9 26 22 38 51 39-40-32-23 9-39-35l63-24c-10-9 16-27-53 4-24 10-40 7-66 5z"/><path class="fil27" d="M113 1906l-12-53 82 27c-9-23-7-22-34-30-19-5-30-9-48-15-6 24-19 44 12 71zM2576 2047c9-9 7 12 14-22 2-8 0-23 0-32 24-3 13 1 28-16l-19 7-27-57c-7-12-5-8-11-15-13 53 37 50 15 135zM2658 925c3-30 21-49-16-77 9 25 14 27 13 56-26-3-53-18-79-25 10 31 48 32 82 46z"/><path class="fil29" d="M2300 365c-18-17-4-9-44-21-1-1-4-10-5-11-8-11-1-4-11-12l2 17c-25 1-57 4-73 14 40 32 19-18 131 13zM202 2080l-11-44 78 15c-11-29-43-26-82-34-2 15-7 27-3 42 6 20 12 17 18 21z"/><path d="M888 2342c-1 2-3 4-4 5l-12 23 65-7 2-44c-17-8 1-1-22-7-4 27-5 24 13 38-18-1-23-4-42-8z" fill="#265827"/><path class="fil27" d="M195 688c27-2 19 5 30 34 7 18 9 25 12 44 8-6 24 2 2-52-12-30-13-33-10-71-6 7-5 1-9 14-2 5-3 16-4 22-41-9-8-2-21 9zM4 1361c23 0 27 13 44 26 29 23 20 23 40 36l-1-37c-43-8-25-16-71-47l-12 22zM1540 2731c39-8-1 7 44 10 20 1 31-6 39-20-28 10-27 12-58 8 2-22 21-44 33-68-30 6-31 21-58 70z"/><path class="fil29" d="M2465 2217c6-6 9-2 16-25 4-10 3-17 3-26 50-4 6 3 26-12-49-5-7-20-42-68-11 24-3 28 3 56 7 28 0 48-6 75z"/><path class="fil27" d="M2618 832c1-6 7-26 6-30-1-32-7-21-14-28l7 28c-19 10-11 7-44-1-17-4-22-5-36-10 11 33 44 27 81 41zM2586 746c0-15 3-11-13-11 2-8 6-15 5-21-6-34-3-13-13-21l5 29-80-14c9 22 11 20 39 25 23 3 35 7 57 13z"/><path class="fil21" d="M2301 2064c-4-50-18-15-44-34l2 50c26 5 19 7 42-16z"/><path class="fil28" d="M7 1259c23-3 44 25 62 49l18 23c9-51 5-20-44-72l-15-18c-1-1-3-2-4-3s-3-2-5-3c-4 21 3 3-12 24z"/><path class="fil24" d="M2158 2072c-19 11-21 16-37 28-4 4-18 12-19 13-19 18-9 1-12 24l35-17c15 3 11 5 9-10l21-21 10 4 12-16c0-1 2-4 2-6-2-1-5-5-6-3l-10-3c-16 2-5 6-5 7z"/><path class="fil33" d="M2741 1527c2-19 8-19 16-33l-18 8-54-56c-10-13-3-4-10-11-3 35 11 34 54 81 7 8 4 5 12 11z"/><path class="fil29" d="M826 149c-8-3-17-8-23-8-27-1-17 2-25 13l28-6-17 78c21-7 19-3 25-28 5-19 8-33 12-49zM2259 2421c12-9 3 3 16-16 0 0 5-12 6-15 38 7 24-5 29-10l-21 4-3-71c-25 16-9 60-27 108z"/><path class="fil33" d="M21 1159l14-3c16 19 43 45 48 69l16-7v-16c-28-17-12-11-34-35l-32-39c-2 25 1 11-12 31z"/><path class="fil27" d="M1839 2654c22-1 13 8 37 6 3-1 14-4 17-6 20-10 2 0 13-12l-49 7c4-15 7-20 12-34 11-30 3-27 0-32-18 14-20 35-30 71zM920 108c-23-9 5-6-21-8-39-4-25 4-32 10l34-2-24 78c23-7 19-3 27-31 6-18 10-30 16-47z"/><path class="fil28" d="M2019 2573c21-9 13-1 34-3 34-3 28-12 32-17l-45 8c3-12 7-21 8-34 6-39-2-24-10-30l-19 76z"/><path class="fil7" d="M1882 2414l-5-122-28 20z"/><path class="fil34" d="M2269 1950l24-15c17 4 13 8 13-10-11-8-11 4-6-15 9 8 9-13 7 15-4 15-6 11 9 11 7-29-6-4 13-12v-51c-13 4-55 65-60 77z"/><path class="fil27" d="M2689 1020c7-22 8-2 10-27 3-23-5-19-6-26-1-4-3-4-5-6l3 40c-25-6-56-21-81-31 11 32 17 23 79 50zM605 253l26-3-8 77c22-7 18-6 21-36 2-24 4-35 8-57-1 1-4 1-5 3s-3 1-5 2c-1 0-3 1-5 1l-11 1c-20 6-13 0-21 12z"/><path class="fil35" d="M1111 209c-26 6-36-8-45 14l27-2c5 22 6 55 21 72 16-25 1-27-3-84z"/><path d="M975 2383c16 14-20 12 19 12 12-17 9 2 11-29 0-13 1 0-3-15-13-4-16-1-20-10l6-5c-12-14 19-11-26-11l8 44 28 8c-12 11 0 3-23 6z" fill="#175718"/><path class="fil27" d="M2745 1425c1-14 1-10 3-18 1-1 2-2 3-6 0-3 2-3 3-5-23 4-67-42-76-58-2 7-10 15 2 30l65 57z"/><path class="fil17" d="M888 2342c19 4 24 7 42 8-18-14-17-11-13-38 23 6 5-1 22 7l6-4c-1-1-1-13-27-15-20-2-20 1-32 8l2 34z"/><path class="fil28" d="M892 2659c14 13 12 13 51 6 1 2 3 3 4 4l15 18-5-20c27-11 42-19 59-41-59 6-40 39-124 33z"/><path class="fil27" d="M2106 2520c27-9 15 1 35-3 28-6 16-7 22-17l-34 9c1-14 4-28 4-39 0-50 1-14-12-26l-15 76z"/><path class="fil29" d="M310 524l22-1 12 81c25-31-1-62 5-115-1 2-3 3-3 6l-12 15c-1 1-2 2-3 2l-15 8c-2 1-4 3-6 4zM2346 426c-40-43-3-28-36-49l11 27-69 7c-1 1-3 2-4 2 0 1-2 2-3 3 29 21 50-1 101 10z"/><path class="fil28" d="M2194 291l-35-36 5 22c-18 1-24 1-39 6-33 10-24 11-30 20l99-12zM2728 1636l-4-24 14-11c-26 1-39-30-66-61-1 0-2-2-3-3-12 30 13 30 45 82 1 1 5 7 6 8l8 9z"/><path class="fil33" d="M1534 19l-22 6-11-15c2 28-43 58-68 74 30 7 40-9 56-24l45-41z"/><path class="fil28" d="M1329 12l-18 8c-5-11-1-1-15-6-2 25-38 66-49 77 27 0 28-7 45-31l28-36 3-3 6-9z"/><path class="fil27" d="M1633 38c-18 0-19-3-33-12 8 28 5 10-8 23 0 1-17 14-17 15-14 11-23 15-37 28 1 1-3 17 26-1 2-1 17-14 21-17l48-36zM1021 71l-26-2c-2 34-18 53-26 81 16-3 14 11 32-34 8-21 13-29 20-45z"/><path class="fil29" d="M303 2223l6-18c12 1 26 4 38 3 44-3 19-3 28-10-25-15-45-7-77-12-3 17-13 37 5 37zM440 2365l2-9 73-9c-19-13-11-17-45-12-31 4-35 1-66-3 2 1 4 3 5 4l15 9c1 1 2 3 3 4 10 9-1-1 8 10l5 6z"/><path class="fil27" d="M1724 63l-26-19 4 23c-27 9-28 14-50 29l-8 5c-8 6-8 6-12 10 37 3 32-3 80-37 16-12 3-2 12-11zM247 2151l-3-29 77 8c-10-19-6-17-37-20-26-2-30-3-53-9 17 28-9 30 16 50zM375 2308l-7-26 77-4c-35-24-54-9-102-18l32 48z"/><path class="fil37" d="M2188 2464c26-15 11-4 25-7 20-5 14 6 25-15l-26 6-1-69c-28 21-10 39-23 85z"/><path class="fil27" d="M2744 1318c-1-21-5 3 9-29-6 4-10 2-15 8-22-14-49-36-69-51 1 33 47 57 75 72zM810 2624c26 13 15-4 45 12l9 7 3-14c23-8 41-17 57-31-22-11-30 2-51 12-24 13-38 10-63 14zM2461 571s4-21 3-22c-7-38 1-10-13-21l5 26-77-3c13 28 45 16 82 20z"/><path class="fil28" d="M2701 1726c5-18 3-9 6-17 0-1 2-2 2-5 1-3 2-3 3-5-22-3-47-50-60-70-8 35 4 31 39 84 5 7 7 8 10 13zM550 2465c7 5 3 5 16 10 1 0 15 1 16 1l15 22 1-17c41-2 50-6 63-25-49 1-51 16-111 9z"/><path class="fil27" d="M376 449l23-4 8 82c23-26 7-64 9-105-17 19-4 7-18 14l-22 13zM531 311h17c0 38-10 56 8 72l17-95-42 23z"/><path class="fil19" d="M918 2425c20-13 16-22 20-52l-35 7c-7 27-11 35 15 45z"/><path class="fil27" d="M64 1760c30 1 64 20 85 31-1-25-10-24-34-33-25-10-32-16-54-24 10 24 9 2 3 26z"/><path class="fil28" d="M2118 234c-17-14-18-2-38-26-1-1-2-3-4-5v19l-69 20c3 3-10 23 50 0 23-9 34-9 61-8z"/><path class="fil29" d="M2031 182c-4-2-5-4-16-6-2-1-14-2-18-2l-13-25 1 23-66 26c2 2-13 26 52-5 23-11 32-9 60-11z"/><path class="fil28" d="M626 2521c11 7-10 3 21 11 9 2 16 0 25 1 4 25-2 10 12 27v-21l62-24c-22-15-25-4-52 5-24 8-43 4-68 1zM489 2403c1 1 3 3 3 4l7 6c1 1 2 3 3 4l18 27-4-25c37-1 51 0 67-21l-94 5z"/><path class="fil27" d="M716 194l-12 81c27-15 27-58 36-94l-24 13z"/><path class="fil29" d="M1235 2734c25 5 2 5 34 19l-12-26c36-18 28-22 59-48-26-8-41 17-64 37l-17 18z"/><path class="fil27" d="M1932 2614c24-1 13 4 27 3 26-3 11 2 19-10l-26 2c1-24 2-11 9-35 9-34-2-30-4-33-14 14-18 44-25 73z"/><path class="fil28" d="M41 1661c27 3 59 27 84 39-5-28-4-21-32-35-22-11-31-17-51-25 7 31 2-11 1 10 0 1-2 9-2 11zM1122 2722l32 5c11-26 42-40 63-58-45-2-22 9-75 38-19 11-9 4-20 15z"/><path class="fil29" d="M2399 493v-14c-5-17 3-8-8-19l-5 18c-18-2-26-2-41-1-27 2-23 3-29 8 23 17 53 7 83 8z"/><path d="M1136 438l18-8-20-88c-19 7-12 17-7 41 4 19 7 34 9 55z" fill="#eb4e2f"/><path class="fil27" d="M469 372c1 15 1 28 2 44 2 36 2 27 9 37 19-28 1-40 10-93-8 4-13 6-21 12zM1035 2694c22 12 3 7 29 22-2-3-6-15-8-17l58-44c-10-5 16-5-12-4-12 1-57 33-67 43z"/><path class="fil33" d="M2719 1121c-7-19-6-9-1-25-19 1-62-25-82-36 6 25 6 22 33 35 20 10 32 18 50 26z"/><path class="fil27" d="M2344 2330c2-1 9-4 11-5l10-5c9-4 10-5 15-9l-20-1c1-17 1-24-3-41l-11-26c-11 26-2 55-2 87zM1216 31c-6-1-15-4-21-7 3 26-30 61-42 79 24 0 25-9 36-25 12-20 19-29 27-47z"/><path class="fil33" d="M2412 2261c21-21 20-10 36-27l-21 4c-1-18-1-23-5-40l-13-31c-10 32 6 52 3 94z"/><path class="fil37" d="M1340 2739c2 1 11 6 14 8 1 1 4 4 5 3 1-2 4 2 6 3l-3-21c20-11 33-34 46-53-28 6-6-5-24 11l-37 40c-1 1-3 6-3 4-1-1-3 3-4 5z"/><path class="fil27" d="M2519 653v-17l-81-8c17 28 44 20 81 25zM1445 2735c6 4 4 3 9 6 1 0 4 4 5 3 1-2 4 2 6 3l-1-21c19-13 21-24 39-52-33 6-47 39-58 61z"/><path class="fil26" d="M2166 796l8 45c-8-15-3-20 13-26l2 9c11 27 6 16 18 24l-7-20c54-61 0-32-13-20-11-7-9-6-21-12z"/><path class="fil28" d="M1736 2693c25-13 0-8 29-5-3-26 11-47 21-71-26 5-20 9-30 33-7 21-12 23-20 43zM1644 2706c11 5 9 3 20 6 0-20 19-47 28-69-28 7-36 39-48 63z"/><path class="fil39" d="M2253 773c24 0 43-30 59-47-14 5-26 11-38 18-20 10-25 9-21 29z"/><path class="fil35" d="M383 904l28 19c12 5 15 8 29 9-3-18-17-31-38-33-31-3-10 0-19 5z"/><path class="fil40" d="M752 1617c-37 5-15 6-21-12-16 12-8 7-19 26-9 15-13 16-22 28 36-15 48-29 62-42z"/><path class="fil34" d="M1201 2405c-6-5-4-6-16-11l-68-16c-44-6-9-4-23 6l107 21z"/><path d="M1501 288c25-14 19-43 7-56-11 14-16 37-7 56z" fill="#cf6832"/><path class="fil39" d="M1588 681l15 1-1 13c19-15 24-26 35-46-26 12-30 11-49 32z"/><path class="fil35" d="M356 889c-6-19 1-14-15-25-10-7-18-5-32-3 10 17 25 22 47 28z"/><path class="fil30" d="M2382 1952c18-5 12 3 22-13 8-16 2-17-2-24-21 4-20 8-20 37z"/><path d="M481 783c-10-17-38-31-56-38 7 10 13 16 23 26 18 18 16 20 33 12z" fill="#c85837"/><path d="M1628 2111l-6 3c10 22 27 37 43 45-7-12-7-11-12-22-13-29 2-20-25-26z" fill="#ceb5af"/><path class="fil30" d="M2355 1916c14-5 18-4 24-14 11-19-2-22-2-22-22 9-18 9-22 36z"/><path class="fil44" d="M2022 1629c12 25 3 17 39 32-7-15-8-18-24-31-2-1-4-2-5-3s-4-2-5-3l-5 5zM1095 673l12-3-21-24c-14-12-11-6-22-19 3 18-1 7 10 25l21 21z"/><path d="M1112 2113l-7-2c-25 10-20 12-31 37 12-7 10-5 21-14 16-14 8-4 17-21z" fill="#d2948a"/><path d="M1379 1620l2 25 27-1c-8-16 6-4-17-15 0-24-3 0 12-9-4-2-3-3-13-4-1 0-9 3-11 4z" fill="#d34f2f"/><path class="fil39" d="M597 719c-7-17-6-6 8-12l-49-25c13 24 21 27 41 37z"/><path class="fil47" d="M1958 2231l5-16-31 2 17 7c-22 15-18 1-10 17 37-3 7 1 19-10z"/><path class="fil24" d="M1963 2365l28-13-6-18c-15 15-4 4-21 10l-1 21z"/><path class="fil34" d="M2231 1996c12-6 3 2 13-7 4-4 5-5 9-10 8-11 11-16 16-29-11 5-3-2-12 8-1 0-7 9-8 11-8 10-12 14-18 27z"/><path class="fil48" d="M1672 2373c25-5 33-5 44-21-5 1-19 3-23 4-36 14-9 2-21 17z"/><path class="fil30" d="M1806 2382c17-11 19-11 25-34-20 8-23 10-25 34z"/><path class="fil34" d="M690 2173c-6-15 3-5-14-18-7-6-15-9-23-12 4 13-8 1 12 16 7 6 15 10 25 14z"/><path class="fil48" d="M1776 2330c26 3 26-2 41-16-20 1-29 3-41 16z"/><path d="M1399 2452c24 0 10 6 25-6-4-3 5-7-18-6-33 1-2-1-16 6l9 6z" fill="#92ca93"/><path class="fil48" d="M468 1957c8 19 6 19 25 26-4-7-3-10-9-17-10-10-4-5-16-9z"/><path class="fil34" d="M716 2192c-6-10 3-4-8-12-8-6-8-5-18-7 5 12-5 2 7 11 8 7 7 5 19 8z"/><path class="fil47" d="M713 2324c2 1 3 1 4 4 1 2 3 2 4 3 11 6 2 2 15 7l-2-18-21 4z"/><path class="fil44" d="M798 493l-1-16 12 2c-8-8 16-12-18-6-1 25-2 10 7 20z"/><path class="fil34" d="M1002 2351c-12-17 10-1-14-15l-6 5c4 9 7 6 20 10z"/><path class="fil40" d="M945 447l11 15c7-20 6-8-6-22l3 11-8-4z"/><path fill="#676867" d="M99 1218l-16 7 8 12z"/><path d="M2306 1925h1c2-28 2-7-7-15-5 19-5 7 6 15z" fill="#50714e"/><path d="M451 2384l-11-19 1 10c0 13-3 9 10 9z" fill="#88847e"/><path class="fil48" d="M468 1957l-12-16c7 35-2 9 12 16z"/><path fill="#777877" d="M2756 1448l-11-23z"/><g><path class="fil54" d="M3532 1251h55c109 0 194-26 256-79 61-53 92-126 92-219s-31-167-92-220c-62-54-147-80-256-80h-55v598zm-247 225V430h278c195 0 348 46 459 140 110 93 166 221 166 383 0 97-22 183-66 259-43 75-108 137-192 186-49 27-101 47-158 60-56 12-126 18-209 18h-278zm1102 0V430h249v1046h-249zm515 0V396h24l651 610V430h231v1086h-22l-654-611v571h-230zm1394-189h104c49 0 89-12 117-37 29-24 43-58 43-101 0-42-14-74-42-97-27-23-67-34-118-34h-104v269zm0-443h83c49 0 87-11 115-33 27-21 41-51 41-90 0-40-13-68-39-86-26-19-67-28-123-28h-77v237zm-228 632V430h324c122 0 213 22 276 66 62 45 93 111 93 199 0 53-14 99-42 136-29 37-72 66-129 87 64 14 113 44 150 89 36 45 54 100 54 165 0 100-37 176-112 227-74 51-184 77-330 77h-284zm1155-332h275l-136-328-139 328zm-392 332l534-1079h16l522 1079h-262l-66-152h-425l-67 152h-252zm1171 0V396h24l652 610V430h230v1086h-21l-654-611v571h-231zm1414-225h55c109 0 194-26 256-79 61-53 92-126 92-219s-31-167-92-220c-62-54-147-80-256-80h-55v598zm-247 225V430h278c195 0 348 46 459 140 111 93 166 221 166 383 0 97-22 183-66 259-43 75-108 137-192 186-49 27-101 47-158 60-56 12-126 18-209 18h-278zm1099 0V430h247v384h403V430h245v1046h-245v-439h-403v439h-247zm1394-1046v575c0 92 17 161 51 207s85 69 154 69c67 0 117-21 152-64s52-105 52-187V430h224v600c0 151-39 269-117 353-77 85-185 127-322 127-139 0-248-42-325-126-77-83-116-201-116-353V430h247z"/><g clip-path="url(#id0)"><path id="1" class="fil55" d="M3084-989h9819v5353H3084z"/><path class="fil56" d="M3084-989h6717L6220 4364H3084z"/></g><path class="fil57" d="M3532 1251h55c109 0 194-26 256-79 61-53 92-126 92-219s-31-167-92-220c-62-54-147-80-256-80h-55v598zm-247 225V430h278c195 0 348 46 459 140 110 93 166 221 166 383 0 97-22 183-66 259-43 75-108 137-192 186-49 27-101 47-158 60-56 12-126 18-209 18h-278zm1102 0V430h249v1046h-249zm515 0V396h24l651 610V430h231v1086h-22l-654-611v571h-230zm1394-189h104c49 0 89-12 117-37 29-24 43-58 43-101 0-42-14-74-42-97-27-23-67-34-118-34h-104v269zm0-443h83c49 0 87-11 115-33 27-21 41-51 41-90 0-40-13-68-39-86-26-19-67-28-123-28h-77v237zm-228 632V430h324c122 0 213 22 276 66 62 45 93 111 93 199 0 53-14 99-42 136-29 37-72 66-129 87 64 14 113 44 150 89 36 45 54 100 54 165 0 100-37 176-112 227-74 51-184 77-330 77h-284zm1155-332h275l-136-328-139 328zm-392 332l534-1079h16l522 1079h-262l-66-152h-425l-67 152h-252zm1171 0V396h24l652 610V430h230v1086h-21l-654-611v571h-231zm1414-225h55c109 0 194-26 256-79 61-53 92-126 92-219s-31-167-92-220c-62-54-147-80-256-80h-55v598zm-247 225V430h278c195 0 348 46 459 140 111 93 166 221 166 383 0 97-22 183-66 259-43 75-108 137-192 186-49 27-101 47-158 60-56 12-126 18-209 18h-278zm1099 0V430h247v384h403V430h245v1046h-245v-439h-403v439h-247zm1394-1046v575c0 92 17 161 51 207s85 69 154 69c67 0 117-21 152-64s52-105 52-187V430h224v600c0 151-39 269-117 353-77 85-185 127-322 127-139 0-248-42-325-126-77-83-116-201-116-353V430h247z"/><path class="fil54" d="M3296 2332v-693h163v254h267v-254h162v693h-162v-291h-267v291h-163zm752 0v-693h426v143h-266v125h228v142h-228v137h270v146h-430zm556 0v-693h165v544h270v149h-435zm704-566h-22v185h30c41 0 73-8 95-24s33-39 33-70-11-54-32-69c-22-14-57-22-104-22zm-188 566v-693h178c55 0 99 4 131 12s61 21 85 40c26 19 46 42 60 70 15 29 22 59 22 90 0 70-25 125-75 167-50 41-118 61-203 61h-20c-4 0-9 0-12-1v254h-166zm861 0v-693h430v141h-266v138h238v140h-238v274h-164zm666-347c0 60 17 111 53 152 35 40 78 61 130 61 51 0 95-21 130-61 35-41 53-91 53-152s-18-111-53-152-79-61-130-61c-52 0-95 20-130 61-36 41-53 91-53 152zm-170 0c0-51 8-99 26-144 18-44 44-84 78-120 33-34 70-59 114-77 42-18 88-27 135-27s92 9 135 27 82 44 115 78c34 34 59 74 77 118 17 45 26 93 26 145 0 44-6 84-18 123-13 38-31 73-54 104-34 45-76 80-125 105s-101 37-156 37c-47 0-92-9-135-27s-81-45-114-79c-34-35-60-75-78-119-18-45-26-93-26-144zm977-346v381c0 61 12 106 34 137 23 30 57 45 102 45 44 0 78-14 101-42s34-70 34-124v-397h148v397c0 100-25 178-77 234-51 56-122 84-213 84-92 0-164-28-215-83-51-56-77-133-77-234v-398h163zm571 693v-715h16l431 404v-382h152v719h-14l-433-404v378h-152zm921-149h36c73 0 129-18 170-53s61-83 61-145c0-61-20-110-61-145-41-36-97-53-170-53h-36v396zm-163 149v-693h184c129 0 230 31 303 93 74 61 110 146 110 253 0 65-14 122-43 171-29 50-72 91-128 124-32 18-66 31-104 39-37 8-83 13-138 13h-184zm863-221h182l-90-216-92 216zm-259 221l353-714h11l345 714h-173l-44-101h-281l-44 101h-167zm831 0v-548h-220v-145h604v145h-219v548h-165zm465 0v-693h166v693h-166zm454-347c0 60 18 111 53 152 35 40 79 61 130 61 52 0 96-21 131-61 35-41 52-91 52-152s-17-111-52-152-79-61-131-61c-51 0-95 20-130 61s-53 91-53 152zm-170 0c0-51 9-99 27-144 17-44 43-84 78-120 32-34 70-59 113-77s88-27 135-27 92 9 136 27c43 18 81 44 115 78 33 34 59 74 76 118 18 45 26 93 26 145 0 44-6 84-18 123-12 38-30 73-54 104-34 45-75 80-124 105-50 25-102 37-157 37-47 0-91-9-134-27s-81-45-114-79c-35-35-61-75-78-119-18-45-27-93-27-144zm822 347v-715h15l432 404v-382h152v719h-14l-433-404v378h-152z"/><g clip-path="url(#id1)"><path id="1" class="fil55" d="M2932-689h9820v5353H2932z"/><path class="fil56" d="M2932-689h6717L6069 4664H2932z"/></g><path class="fil57" d="M3296 2332v-693h163v254h267v-254h162v693h-162v-291h-267v291h-163zm752 0v-693h426v143h-266v125h228v142h-228v137h270v146h-430zm556 0v-693h165v544h270v149h-435zm704-566h-22v185h30c41 0 73-8 95-24s33-39 33-70-11-54-32-69c-22-14-57-22-104-22zm-188 566v-693h178c55 0 99 4 131 12s61 21 85 40c26 19 46 42 60 70 15 29 22 59 22 90 0 70-25 125-75 167-50 41-118 61-203 61h-20c-4 0-9 0-12-1v254h-166zm861 0v-693h430v141h-266v138h238v140h-238v274h-164zm666-347c0 60 17 111 53 152 35 40 78 61 130 61 51 0 95-21 130-61 35-41 53-91 53-152s-18-111-53-152-79-61-130-61c-52 0-95 20-130 61-36 41-53 91-53 152zm-170 0c0-51 8-99 26-144 18-44 44-84 78-120 33-34 70-59 114-77 42-18 88-27 135-27s92 9 135 27 82 44 115 78c34 34 59 74 77 118 17 45 26 93 26 145 0 44-6 84-18 123-13 38-31 73-54 104-34 45-76 80-125 105s-101 37-156 37c-47 0-92-9-135-27s-81-45-114-79c-34-35-60-75-78-119-18-45-26-93-26-144zm977-346v381c0 61 12 106 34 137 23 30 57 45 102 45 44 0 78-14 101-42s34-70 34-124v-397h148v397c0 100-25 178-77 234-51 56-122 84-213 84-92 0-164-28-215-83-51-56-77-133-77-234v-398h163zm571 693v-715h16l431 404v-382h152v719h-14l-433-404v378h-152zm921-149h36c73 0 129-18 170-53s61-83 61-145c0-61-20-110-61-145-41-36-97-53-170-53h-36v396zm-163 149v-693h184c129 0 230 31 303 93 74 61 110 146 110 253 0 65-14 122-43 171-29 50-72 91-128 124-32 18-66 31-104 39-37 8-83 13-138 13h-184zm863-221h182l-90-216-92 216zm-259 221l353-714h11l345 714h-173l-44-101h-281l-44 101h-167zm831 0v-548h-220v-145h604v145h-219v548h-165zm465 0v-693h166v693h-166zm454-347c0 60 18 111 53 152 35 40 79 61 130 61 52 0 96-21 131-61 35-41 52-91 52-152s-17-111-52-152-79-61-131-61c-51 0-95 20-130 61s-53 91-53 152zm-170 0c0-51 9-99 27-144 17-44 43-84 78-120 32-34 70-59 113-77s88-27 135-27 92 9 136 27c43 18 81 44 115 78 33 34 59 74 76 118 18 45 26 93 26 145 0 44-6 84-18 123-12 38-30 73-54 104-34 45-75 80-124 105-50 25-102 37-157 37-47 0-91-9-134-27s-81-45-114-79c-35-35-61-75-78-119-18-45-27-93-27-144zm822 347v-715h15l432 404v-382h152v719h-14l-433-404v378h-152z"/></g></g></g></svg>